<?xml version="1.0" standalone="no"?>
<!DOCTYPE svg PUBLIC "-//W3C//DTD SVG 20010904//EN"
 "http://www.w3.org/TR/2001/REC-SVG-20010904/DTD/svg10.dtd">
<svg version="1.0" xmlns="http://www.w3.org/2000/svg"
 width="2816.000000pt" height="1536.000000pt" viewBox="0 0 2816.000000 1536.000000"
 preserveAspectRatio="xMidYMid meet">

<g transform="translate(0.000000,1536.000000) scale(0.100000,-0.100000)"
fill="#000000" stroke="none">
<path d="M17151 11207 c-180 -343 -506 -832 -715 -1072 -657 -753 -1185 -1131
-2616 -1870 -705 -364 -1039 -561 -1419 -836 -508 -366 -900 -792 -1170 -1271
-166 -293 -334 -709 -365 -903 -9 -53 22 -98 63 -93 24 3 41 33 186 323 206
412 352 640 599 935 313 375 712 686 1326 1032 290 164 443 243 1175 611 298
150 719 376 900 484 419 250 800 530 1105 814 274 254 568 600 713 837 l52 85
3 -124 c9 -345 -85 -817 -225 -1129 -148 -330 -298 -575 -514 -837 -93 -114
-326 -351 -454 -462 -470 -408 -1138 -763 -2103 -1117 -90 -33 -147 -60 -173
-82 -42 -36 -79 -98 -79 -132 0 -32 26 -75 57 -96 26 -17 48 -19 253 -18 457
2 978 70 1450 189 216 54 589 184 722 251 37 19 93 45 123 59 l55 24 -22 -42
c-90 -177 -276 -425 -448 -598 -270 -271 -583 -460 -980 -592 -197 -66 -641
-144 -920 -162 -185 -12 -577 -45 -765 -66 -1048 -113 -1670 -441 -2050 -1084
-33 -55 -70 -126 -83 -159 -21 -52 -22 -60 -9 -74 26 -25 59 -7 101 55 124
181 305 372 471 495 127 95 162 117 294 183 358 179 717 252 1416 285 229 11
363 18 495 25 47 3 137 7 200 10 292 15 638 72 885 147 757 229 1343 712 1733
1428 136 249 323 756 349 945 l6 48 -64 -43 c-35 -24 -91 -64 -124 -90 -178
-138 -464 -315 -716 -443 -430 -219 -930 -380 -1409 -453 -19 -3 24 19 95 49
759 317 1372 707 1792 1140 485 500 795 1071 913 1682 107 549 107 1055 0
1590 -16 77 -31 159 -35 183 -4 23 -10 42 -13 42 -4 0 -31 -46 -61 -103z"/>
</g>
</svg>
